<svg id="Group_873" data-name="Group 873" xmlns="http://www.w3.org/2000/svg" width="14.1" height="19.882" viewBox="0 0 14.1 19.882">
  <path id="Path_38083" data-name="Path 38083" d="M206.357,203.635c-.162-.507-.54-1.182-.6-1.077-.007.01,0,.237.012.5a14.325,14.325,0,0,1-.095,2.53c-.024.143-.034.2-.091.492-.035.183-.032.184.169.084C206.547,205.773,206.759,204.89,206.357,203.635Z" transform="translate(-192.455 -193.225)" fill="#272c4c"/>
  <path id="Path_38084" data-name="Path 38084" d="M194.525,206.04a2.076,2.076,0,0,0,2.059-1.487c.2-.738-.085-1.945-.509-2.145-.093-.044-.078-.044-.162.007a3.039,3.039,0,0,0-.422.477,12.484,12.484,0,0,0-1.124,1.979s-.025.062-.054.128a3.046,3.046,0,0,0-.262.868C194.051,206.011,194.127,206.039,194.525,206.04Z" transform="translate(-193.512 -193.231)" fill="#272c4c"/>
  <path id="Path_38085" data-name="Path 38085" d="M200.148,195.138a8.015,8.015,0,0,1,1.473-.036c.2.042.164-.447-.059-.911-.181-.379-.685-.732-.941-.658-.2.058-.2.319.01.557.122.138.112.15-.078.077-.571-.216-.827.169-.3.457.209.115.221.145.064.164a.536.536,0,0,0-.457.288C199.812,195.186,199.843,195.192,200.148,195.138Z" transform="translate(-192.865 -193.524)" fill="#272c4c"/>
  <path id="Path_38086" data-name="Path 38086" d="M206.126,200.542c-.021-.107-.055-.289-.077-.4s-.054-.268-.075-.342-.067-.25-.1-.391c-.733-2.751-2.508-4.15-4.879-3.848a4.189,4.189,0,0,0-.883.194,4.45,4.45,0,0,0-2.815,2.786,9.338,9.338,0,0,0-.544,3.145l-.023.568.147.151a2.723,2.723,0,0,1-2.337,4.507c-1.072,0-1.2.092-.94.664a5.407,5.407,0,0,0,2.958,2.3,9.1,9.1,0,0,0,1.426.407c.087.018.175.035.264.05.033.086.074.193.111.288.059.155.412,1.068.433,1.128s.048.132.06.159c.136.31.14.305-.323.305-.359,0-.4.017-.4.156,0,.188.105.24.534.261a1.372,1.372,0,0,1,1.24.64c.19.255.3.3.457.176s.055-.353-.26-.65c-.166-.157-.183-.149.359-.153a1.8,1.8,0,0,0,.526-.036c.184-.1.228-.209.127-.33l-.053-.065h-.633c-.879,0-.86.01-1.09-.574l-.468-1.2-.007-.016a12.575,12.575,0,0,0,2.972-.013,4.849,4.849,0,0,1,.423.974c.1.281.105.278-.37.294l-.37.012v.1c0,.179.107.228.587.27a3.7,3.7,0,0,1,.479.063,1.222,1.222,0,0,1,.66.5c.237.334.3.372.463.291.217-.106.164-.293-.185-.652-.19-.195-.174-.223.111-.188.591.072.96-.035.96-.278,0-.125.03-.121-.775-.119-.909,0-.85.026-1-.387-.027-.074-.274-.708-.382-.981a4.7,4.7,0,0,0,.824-.244l.273-.113a2.793,2.793,0,0,0,.265-.125.6.6,0,0,1,.111-.056,4.683,4.683,0,0,0,.947-.7,5.145,5.145,0,0,0,1.334-2.465c.008-.041.033-.15.055-.245s.051-.243.064-.33.043-.3.068-.465a25.4,25.4,0,0,0,.016-2.933C206.3,201.8,206.179,200.807,206.126,200.542Zm-5.18-1.063a.287.287,0,0,1,.11.407.327.327,0,0,1-.56-.019C200.354,199.609,200.683,199.327,200.947,199.479Zm2.438,1.6c-.89.569-.815.554-1.278.273-.773-.469-.774-.452.052-.766.4-.151.345-.155.891.056S203.638,200.916,203.385,201.078Zm.94-1.074a.3.3,0,0,1-.285-.531.312.312,0,0,1,.383.064A.281.281,0,0,1,204.325,200Z" transform="translate(-193.481 -193.63)" fill="#272c4c"/>
</svg>
